#N canvas 743 61 1486 984 10;
#N canvas 0 22 450 300 gemwin 0;
#X obj 132 136 gemwin;
#X obj 67 89 outlet;
#X obj 67 10 inlet;
#X obj 67 41 route create;
#X msg 67 70 set destroy;
#X msg 142 68 set create;
#X msg 198 112 destroy \, reset;
#X msg 132 94 create \, 1 \, color 0.5 0.5 0.5;
#X connect 2 0 3 0;
#X connect 3 0 4 0;
#X connect 3 0 7 0;
#X connect 3 1 5 0;
#X connect 3 1 6 0;
#X connect 4 0 1 0;
#X connect 5 0 1 0;
#X connect 6 0 0 0;
#X connect 7 0 0 0;
#X restore -31 14 pd gemwin;
#X msg 17 -34 destroy;
#X obj -123 126 gemhead;
#X obj -65 250 pix_texture;
#N canvas 1171 690 450 300 old 0;
#X obj 28 8 cnv 15 50 30 empty empty empty 20 12 0 14 -260097 -66577
0;
#X obj 111 56 cnv 15 80 630 empty empty empty 20 12 0 14 -257985 -66577
0;
#X obj 362 708 cnv 15 60 30 empty empty empty 20 12 0 14 -260097 -66577
0;
#X floatatom 33 14 5 0 255 0 - - -;
#X obj 32 60 / 2;
#X obj 63 60 % 2;
#X floatatom 116 81 5 0 0 0 - - -;
#X floatatom 32 100 5 0 0 0 - - -;
#X obj 32 80 i;
#X obj 32 144 / 2;
#X obj 32 165 i;
#X obj 65 142 % 2;
#X floatatom 120 168 5 0 0 0 - - -;
#X floatatom 32 184 5 0 0 0 - - -;
#X obj 33 231 / 2;
#X obj 60 231 % 2;
#X floatatom 116 253 5 0 0 0 - - -;
#X obj 33 251 i;
#X floatatom 32 271 5 0 0 0 - - -;
#X obj 32 312 / 2;
#X obj 59 312 % 2;
#X floatatom 116 335 5 0 0 0 - - -;
#X obj 32 334 i;
#X floatatom 31 356 5 0 0 0 - - -;
#X obj 31 395 / 2;
#X obj 58 395 % 2;
#X floatatom 115 416 5 0 0 0 - - -;
#X obj 31 415 i;
#X floatatom 31 435 5 0 0 0 - - -;
#X obj 31 473 / 2;
#X obj 58 473 % 2;
#X floatatom 115 493 5 0 0 0 - - -;
#X obj 31 492 i;
#X floatatom 30 512 5 0 0 0 - - -;
#X obj 30 550 / 2;
#X obj 57 550 % 2;
#X floatatom 114 570 5 0 0 0 - - -;
#X obj 30 569 i;
#X floatatom 31 591 5 0 0 0 - - -;
#X obj 58 627 % 2;
#X floatatom 115 649 5 0 0 0 - - -;
#X text 161 58 bit;
#X text 165 81 1;
#X text 167 169 2;
#X text 164 255 3;
#X text 164 335 4;
#X text 163 418 5;
#X text 162 492 6;
#X text 159 569 7;
#X text 162 649 8;
#X floatatom 277 158 5 0 0 0 - - -;
#X obj 227 105 * 2;
#X obj 227 132 pow 0;
#X floatatom 278 248 5 0 0 0 - - -;
#X obj 228 195 * 2;
#X floatatom 280 332 5 0 0 0 - - -;
#X obj 230 279 * 2;
#X floatatom 282 413 5 0 0 0 - - -;
#X obj 232 360 * 2;
#X floatatom 290 495 5 0 0 0 - - -;
#X obj 235 441 * 2;
#X floatatom 282 568 5 0 0 0 - - -;
#X obj 232 515 * 2;
#X floatatom 280 647 5 0 0 0 - - -;
#X obj 230 594 * 2;
#X floatatom 276 726 5 0 0 0 - - -;
#X obj 226 673 * 2;
#X obj 228 222 pow 1;
#X obj 230 306 pow 2;
#X obj 232 387 pow 3;
#X obj 235 468 pow 4;
#X obj 232 542 pow 5;
#X obj 230 621 pow 6;
#X obj 226 700 pow 7;
#X obj 317 291 +;
#X obj 316 367 +;
#X obj 316 437 +;
#X obj 328 521 +;
#X obj 322 589 +;
#X obj 318 670 +;
#X obj 323 744 +;
#X floatatom 322 783 5 0 0 0 - - -;
#X obj 33 41 t f f;
#X obj 32 207 t f f;
#X obj 32 291 t f f;
#X obj 31 375 t f f;
#X obj 31 453 t f f;
#X obj 31 530 t f f;
#X obj 32 120 t f f;
#X text 95 13 <--- scroll;
#X obj 370 720 list;
#X msg 363 876 \$1 \$2 \$3 \$4 \$5 \$6 \$7 \$8;
#X obj 370 688 pack \$1 \$2 \$3 \$4 \$5 \$6 \$7 \$8;
#X obj 370 776 print;
#X connect 3 0 82 0;
#X connect 4 0 8 0;
#X connect 5 0 6 0;
#X connect 6 0 51 0;
#X connect 6 0 92 7;
#X connect 7 0 88 0;
#X connect 8 0 7 0;
#X connect 9 0 10 0;
#X connect 10 0 13 0;
#X connect 11 0 12 0;
#X connect 12 0 54 0;
#X connect 12 0 92 6;
#X connect 13 0 83 0;
#X connect 14 0 17 0;
#X connect 15 0 16 0;
#X connect 16 0 56 0;
#X connect 16 0 92 5;
#X connect 17 0 18 0;
#X connect 18 0 84 0;
#X connect 19 0 22 0;
#X connect 20 0 21 0;
#X connect 21 0 58 0;
#X connect 21 0 92 4;
#X connect 22 0 23 0;
#X connect 23 0 85 0;
#X connect 24 0 27 0;
#X connect 25 0 26 0;
#X connect 26 0 60 0;
#X connect 26 0 92 3;
#X connect 27 0 28 0;
#X connect 28 0 86 0;
#X connect 29 0 32 0;
#X connect 30 0 31 0;
#X connect 31 0 62 0;
#X connect 31 0 92 2;
#X connect 32 0 33 0;
#X connect 33 0 87 0;
#X connect 34 0 37 0;
#X connect 35 0 36 0;
#X connect 36 0 64 0;
#X connect 36 0 92 1;
#X connect 37 0 38 0;
#X connect 38 0 39 0;
#X connect 39 0 40 0;
#X connect 40 0 66 0;
#X connect 40 0 92 0;
#X connect 50 0 74 1;
#X connect 51 0 52 0;
#X connect 52 0 50 0;
#X connect 53 0 74 0;
#X connect 54 0 67 0;
#X connect 55 0 75 0;
#X connect 56 0 68 0;
#X connect 57 0 76 0;
#X connect 58 0 69 0;
#X connect 59 0 77 0;
#X connect 60 0 70 0;
#X connect 61 0 78 0;
#X connect 62 0 71 0;
#X connect 63 0 79 0;
#X connect 64 0 72 0;
#X connect 65 0 80 0;
#X connect 66 0 73 0;
#X connect 67 0 53 0;
#X connect 68 0 55 0;
#X connect 69 0 57 0;
#X connect 70 0 59 0;
#X connect 71 0 61 0;
#X connect 72 0 63 0;
#X connect 73 0 65 0;
#X connect 74 0 75 1;
#X connect 75 0 76 1;
#X connect 76 0 77 1;
#X connect 77 0 78 1;
#X connect 78 0 79 1;
#X connect 79 0 80 1;
#X connect 80 0 81 0;
#X connect 82 0 4 0;
#X connect 82 1 5 0;
#X connect 83 0 14 0;
#X connect 83 1 15 0;
#X connect 84 0 19 0;
#X connect 84 1 20 0;
#X connect 85 0 24 0;
#X connect 85 1 25 0;
#X connect 86 0 29 0;
#X connect 86 1 30 0;
#X connect 87 0 34 0;
#X connect 87 1 35 0;
#X connect 88 0 9 0;
#X connect 88 1 11 0;
#X connect 90 0 93 0;
#X connect 92 0 90 0;
#X restore 116 -192 pd old;
#X obj -63 -102 loadbang;
#X msg -31 -34 create;
#X obj -82 -68 t b b b b;
#X obj -82 -101 bng 15 250 50 0 empty empty empty 17 7 0 10 -262144
-1 -1;
#X msg 11 122 1 0 0;
#X obj 116 -171 print;
#X obj 37 -137 send RESETCOUNTER;
#X obj 37 -161 bng 15 250 50 0 empty empty empty 17 7 0 10 -262144
-1 -1;
#X msg 165 -244 bang;
#X obj 165 -218 trigger bang bang;
#X obj 165 -192 metro 2;
#X msg 209 -243 stop;
#X floatatom 329 -27 10 0 0 0 - - -;
#X floatatom 331 -6 10 0 0 0 - - -;
#X floatatom 331 17 10 0 0 0 - - -;
#X floatatom 331 40 10 0 0 0 - - -;
#X floatatom 331 60 10 0 0 0 - - -;
#X floatatom 331 83 10 0 0 0 - - -;
#X floatatom 331 106 10 0 0 0 - - -;
#X floatatom 331 126 10 0 0 0 - - -;
#X floatatom 333 610 5 0 0 0 - - -;
#X msg 131 653 0 0 0 1 0 0 0 1 0 1 1 0 0 0 0 0;
#X msg 131 632 set \$1 \$2 \$3 \$4 \$5 \$6 \$7 \$8 \$9 \$10 \$11 \$12
\$13 \$14 \$15 \$16;
#X obj 202 -106 bng 15 250 50 0 empty empty empty 17 7 0 10 -262144
-1 -1;
#X obj 509 632 print;
#X text 228 -106 STEP;
#X text 172 -271 AUTO;
#X floatatom 41 446 5 0 0 0 - - -;
#X obj -65 466 square 3;
#X obj 165 -6 COMPTEURHEXADECIMALBINAIRE;
#X obj 399 -130 send RANDOMIZE;
#X obj 372 -155 t b b;
#X msg 372 -234 bang;
#X obj 372 -208 trigger bang bang;
#X msg 416 -233 stop;
#X text 379 -261 AUTO;
#X obj 372 -182 metro 200;
#X obj 423 -157 bng 15 250 50 0 empty empty empty 17 7 0 10 -262144
-1 -1;
#X text -65 -214 Py Fave 2015;
#X msg -48 223 quality 0 \, repeat 0;
#X obj -34 359 rotateXYZ;
#X floatatom -12 315 5 0 0 0 - - -;
#X text -67 -237 BRUTE FORCE ART 0.99;
#X obj 165 -27 COMPTEURHEXADECIMALBINAIRE;
#X obj 165 17 COMPTEURHEXADECIMALBINAIRE;
#X obj 164 126 COMPTEURHEXADECIMALBINAIRE;
#X obj 164 60 COMPTEURHEXADECIMALBINAIRE;
#X obj 164 39 COMPTEURHEXADECIMALBINAIRE;
#X obj 164 106 COMPTEURHEXADECIMALBINAIRE;
#X obj 164 83 COMPTEURHEXADECIMALBINAIRE;
#X obj 168 610 COMPTEURHEXADECIMALBINAIRE;
#X msg -65 91 GREY;
#X floatatom 334 182 10 0 0 0 - - -;
#X floatatom 330 202 10 0 0 0 - - -;
#X floatatom 330 225 10 0 0 0 - - -;
#X floatatom 330 248 10 0 0 0 - - -;
#X floatatom 330 268 10 0 0 0 - - -;
#X floatatom 330 291 10 0 0 0 - - -;
#X floatatom 330 314 10 0 0 0 - - -;
#X floatatom 330 334 10 0 0 0 - - -;
#X obj 164 202 COMPTEURHEXADECIMALBINAIRE;
#X obj 164 181 COMPTEURHEXADECIMALBINAIRE;
#X obj 164 225 COMPTEURHEXADECIMALBINAIRE;
#X obj 163 334 COMPTEURHEXADECIMALBINAIRE;
#X obj 163 268 COMPTEURHEXADECIMALBINAIRE;
#X obj 163 247 COMPTEURHEXADECIMALBINAIRE;
#X obj 163 314 COMPTEURHEXADECIMALBINAIRE;
#X obj 163 291 COMPTEURHEXADECIMALBINAIRE;
#X floatatom 565 -27 10 0 0 0 - - -;
#X floatatom 567 -6 10 0 0 0 - - -;
#X floatatom 567 17 10 0 0 0 - - -;
#X floatatom 567 40 10 0 0 0 - - -;
#X floatatom 567 60 10 0 0 0 - - -;
#X floatatom 567 83 10 0 0 0 - - -;
#X floatatom 567 106 10 0 0 0 - - -;
#X floatatom 567 126 10 0 0 0 - - -;
#X obj 401 -6 COMPTEURHEXADECIMALBINAIRE;
#X obj 401 -27 COMPTEURHEXADECIMALBINAIRE;
#X obj 401 17 COMPTEURHEXADECIMALBINAIRE;
#X obj 400 126 COMPTEURHEXADECIMALBINAIRE;
#X obj 400 60 COMPTEURHEXADECIMALBINAIRE;
#X obj 400 39 COMPTEURHEXADECIMALBINAIRE;
#X obj 400 106 COMPTEURHEXADECIMALBINAIRE;
#X obj 400 83 COMPTEURHEXADECIMALBINAIRE;
#X floatatom 570 182 10 0 0 0 - - -;
#X floatatom 566 202 10 0 0 0 - - -;
#X floatatom 566 225 10 0 0 0 - - -;
#X floatatom 566 248 10 0 0 0 - - -;
#X floatatom 566 268 10 0 0 0 - - -;
#X floatatom 566 291 10 0 0 0 - - -;
#X floatatom 566 314 10 0 0 0 - - -;
#X floatatom 566 334 10 0 0 0 - - -;
#X obj 400 202 COMPTEURHEXADECIMALBINAIRE;
#X obj 400 181 COMPTEURHEXADECIMALBINAIRE;
#X obj 400 225 COMPTEURHEXADECIMALBINAIRE;
#X obj 399 334 COMPTEURHEXADECIMALBINAIRE;
#X obj 399 268 COMPTEURHEXADECIMALBINAIRE;
#X obj 399 247 COMPTEURHEXADECIMALBINAIRE;
#X obj 399 314 COMPTEURHEXADECIMALBINAIRE;
#X obj 399 291 COMPTEURHEXADECIMALBINAIRE;
#X floatatom 801 -27 10 0 0 0 - - -;
#X floatatom 803 -6 10 0 0 0 - - -;
#X floatatom 803 17 10 0 0 0 - - -;
#X floatatom 803 40 10 0 0 0 - - -;
#X floatatom 803 60 10 0 0 0 - - -;
#X floatatom 803 83 10 0 0 0 - - -;
#X floatatom 803 106 10 0 0 0 - - -;
#X floatatom 803 126 10 0 0 0 - - -;
#X obj 637 -6 COMPTEURHEXADECIMALBINAIRE;
#X obj 637 -27 COMPTEURHEXADECIMALBINAIRE;
#X obj 637 17 COMPTEURHEXADECIMALBINAIRE;
#X obj 636 126 COMPTEURHEXADECIMALBINAIRE;
#X obj 636 60 COMPTEURHEXADECIMALBINAIRE;
#X obj 636 39 COMPTEURHEXADECIMALBINAIRE;
#X obj 636 106 COMPTEURHEXADECIMALBINAIRE;
#X obj 636 83 COMPTEURHEXADECIMALBINAIRE;
#X floatatom 806 182 10 0 0 0 - - -;
#X floatatom 802 202 10 0 0 0 - - -;
#X floatatom 802 225 10 0 0 0 - - -;
#X floatatom 802 248 10 0 0 0 - - -;
#X floatatom 802 268 10 0 0 0 - - -;
#X floatatom 802 291 10 0 0 0 - - -;
#X floatatom 802 314 10 0 0 0 - - -;
#X floatatom 802 334 10 0 0 0 - - -;
#X obj 636 202 COMPTEURHEXADECIMALBINAIRE;
#X obj 636 181 COMPTEURHEXADECIMALBINAIRE;
#X obj 636 225 COMPTEURHEXADECIMALBINAIRE;
#X obj 635 334 COMPTEURHEXADECIMALBINAIRE;
#X obj 635 268 COMPTEURHEXADECIMALBINAIRE;
#X obj 635 247 COMPTEURHEXADECIMALBINAIRE;
#X obj 635 314 COMPTEURHEXADECIMALBINAIRE;
#X obj 635 291 COMPTEURHEXADECIMALBINAIRE;
#X floatatom 1036 -27 10 0 0 0 - - -;
#X floatatom 1038 -6 10 0 0 0 - - -;
#X floatatom 1038 17 10 0 0 0 - - -;
#X floatatom 1038 40 10 0 0 0 - - -;
#X floatatom 1038 60 10 0 0 0 - - -;
#X floatatom 1038 83 10 0 0 0 - - -;
#X floatatom 1038 106 10 0 0 0 - - -;
#X floatatom 1038 126 10 0 0 0 - - -;
#X obj 872 -6 COMPTEURHEXADECIMALBINAIRE;
#X obj 872 -27 COMPTEURHEXADECIMALBINAIRE;
#X obj 872 17 COMPTEURHEXADECIMALBINAIRE;
#X obj 871 126 COMPTEURHEXADECIMALBINAIRE;
#X obj 871 60 COMPTEURHEXADECIMALBINAIRE;
#X obj 871 39 COMPTEURHEXADECIMALBINAIRE;
#X obj 871 106 COMPTEURHEXADECIMALBINAIRE;
#X obj 871 83 COMPTEURHEXADECIMALBINAIRE;
#X floatatom 1041 182 10 0 0 0 - - -;
#X floatatom 1037 202 10 0 0 0 - - -;
#X floatatom 1037 225 10 0 0 0 - - -;
#X floatatom 1037 248 10 0 0 0 - - -;
#X floatatom 1037 268 10 0 0 0 - - -;
#X floatatom 1037 291 10 0 0 0 - - -;
#X floatatom 1037 314 10 0 0 0 - - -;
#X floatatom 1037 334 10 0 0 0 - - -;
#X obj 871 202 COMPTEURHEXADECIMALBINAIRE;
#X obj 871 181 COMPTEURHEXADECIMALBINAIRE;
#X obj 871 225 COMPTEURHEXADECIMALBINAIRE;
#X obj 870 334 COMPTEURHEXADECIMALBINAIRE;
#X obj 870 268 COMPTEURHEXADECIMALBINAIRE;
#X obj 870 247 COMPTEURHEXADECIMALBINAIRE;
#X obj 870 314 COMPTEURHEXADECIMALBINAIRE;
#X obj 870 291 COMPTEURHEXADECIMALBINAIRE;
#N canvas 2162 77 1188 849 compteurs 0;
#X floatatom 317 85 10 0 0 0 - - -;
#X floatatom 319 106 10 0 0 0 - - -;
#X floatatom 319 129 10 0 0 0 - - -;
#X floatatom 319 152 10 0 0 0 - - -;
#X floatatom 319 172 10 0 0 0 - - -;
#X floatatom 319 195 10 0 0 0 - - -;
#X floatatom 319 218 10 0 0 0 - - -;
#X floatatom 319 238 10 0 0 0 - - -;
#X obj 153 106 COMPTEURHEXADECIMALBINAIRE;
#X obj 153 85 COMPTEURHEXADECIMALBINAIRE;
#X obj 153 129 COMPTEURHEXADECIMALBINAIRE;
#X obj 152 238 COMPTEURHEXADECIMALBINAIRE;
#X obj 152 172 COMPTEURHEXADECIMALBINAIRE;
#X obj 152 151 COMPTEURHEXADECIMALBINAIRE;
#X obj 152 218 COMPTEURHEXADECIMALBINAIRE;
#X obj 152 195 COMPTEURHEXADECIMALBINAIRE;
#X floatatom 322 294 10 0 0 0 - - -;
#X floatatom 318 314 10 0 0 0 - - -;
#X floatatom 318 337 10 0 0 0 - - -;
#X floatatom 318 360 10 0 0 0 - - -;
#X floatatom 318 380 10 0 0 0 - - -;
#X floatatom 318 403 10 0 0 0 - - -;
#X floatatom 318 426 10 0 0 0 - - -;
#X floatatom 318 446 10 0 0 0 - - -;
#X obj 152 314 COMPTEURHEXADECIMALBINAIRE;
#X obj 152 293 COMPTEURHEXADECIMALBINAIRE;
#X obj 152 337 COMPTEURHEXADECIMALBINAIRE;
#X obj 151 446 COMPTEURHEXADECIMALBINAIRE;
#X obj 151 380 COMPTEURHEXADECIMALBINAIRE;
#X obj 151 359 COMPTEURHEXADECIMALBINAIRE;
#X obj 151 426 COMPTEURHEXADECIMALBINAIRE;
#X obj 151 403 COMPTEURHEXADECIMALBINAIRE;
#X floatatom 553 85 10 0 0 0 - - -;
#X floatatom 555 106 10 0 0 0 - - -;
#X floatatom 555 129 10 0 0 0 - - -;
#X floatatom 555 152 10 0 0 0 - - -;
#X floatatom 555 172 10 0 0 0 - - -;
#X floatatom 555 195 10 0 0 0 - - -;
#X floatatom 555 218 10 0 0 0 - - -;
#X floatatom 555 238 10 0 0 0 - - -;
#X obj 389 106 COMPTEURHEXADECIMALBINAIRE;
#X obj 389 85 COMPTEURHEXADECIMALBINAIRE;
#X obj 389 129 COMPTEURHEXADECIMALBINAIRE;
#X obj 388 238 COMPTEURHEXADECIMALBINAIRE;
#X obj 388 172 COMPTEURHEXADECIMALBINAIRE;
#X obj 388 151 COMPTEURHEXADECIMALBINAIRE;
#X obj 388 218 COMPTEURHEXADECIMALBINAIRE;
#X obj 388 195 COMPTEURHEXADECIMALBINAIRE;
#X floatatom 558 294 10 0 0 0 - - -;
#X floatatom 554 314 10 0 0 0 - - -;
#X floatatom 554 337 10 0 0 0 - - -;
#X floatatom 554 360 10 0 0 0 - - -;
#X floatatom 554 380 10 0 0 0 - - -;
#X floatatom 554 403 10 0 0 0 - - -;
#X floatatom 554 426 10 0 0 0 - - -;
#X floatatom 554 446 10 0 0 0 - - -;
#X obj 388 314 COMPTEURHEXADECIMALBINAIRE;
#X obj 388 293 COMPTEURHEXADECIMALBINAIRE;
#X obj 388 337 COMPTEURHEXADECIMALBINAIRE;
#X obj 387 446 COMPTEURHEXADECIMALBINAIRE;
#X obj 387 380 COMPTEURHEXADECIMALBINAIRE;
#X obj 387 359 COMPTEURHEXADECIMALBINAIRE;
#X obj 387 426 COMPTEURHEXADECIMALBINAIRE;
#X obj 387 403 COMPTEURHEXADECIMALBINAIRE;
#X floatatom 789 85 10 0 0 0 - - -;
#X floatatom 791 106 10 0 0 0 - - -;
#X floatatom 791 129 10 0 0 0 - - -;
#X floatatom 791 152 10 0 0 0 - - -;
#X floatatom 791 172 10 0 0 0 - - -;
#X floatatom 791 195 10 0 0 0 - - -;
#X floatatom 791 218 10 0 0 0 - - -;
#X floatatom 791 238 10 0 0 0 - - -;
#X obj 625 106 COMPTEURHEXADECIMALBINAIRE;
#X obj 625 85 COMPTEURHEXADECIMALBINAIRE;
#X obj 625 129 COMPTEURHEXADECIMALBINAIRE;
#X obj 624 238 COMPTEURHEXADECIMALBINAIRE;
#X obj 624 172 COMPTEURHEXADECIMALBINAIRE;
#X obj 624 151 COMPTEURHEXADECIMALBINAIRE;
#X obj 624 218 COMPTEURHEXADECIMALBINAIRE;
#X obj 624 195 COMPTEURHEXADECIMALBINAIRE;
#X floatatom 794 294 10 0 0 0 - - -;
#X floatatom 790 314 10 0 0 0 - - -;
#X floatatom 790 337 10 0 0 0 - - -;
#X floatatom 790 360 10 0 0 0 - - -;
#X floatatom 790 380 10 0 0 0 - - -;
#X floatatom 790 403 10 0 0 0 - - -;
#X floatatom 790 426 10 0 0 0 - - -;
#X floatatom 790 446 10 0 0 0 - - -;
#X obj 624 314 COMPTEURHEXADECIMALBINAIRE;
#X obj 624 293 COMPTEURHEXADECIMALBINAIRE;
#X obj 624 337 COMPTEURHEXADECIMALBINAIRE;
#X obj 623 446 COMPTEURHEXADECIMALBINAIRE;
#X obj 623 380 COMPTEURHEXADECIMALBINAIRE;
#X obj 623 359 COMPTEURHEXADECIMALBINAIRE;
#X obj 623 426 COMPTEURHEXADECIMALBINAIRE;
#X obj 623 403 COMPTEURHEXADECIMALBINAIRE;
#X floatatom 1024 85 10 0 0 0 - - -;
#X floatatom 1026 106 10 0 0 0 - - -;
#X floatatom 1026 129 10 0 0 0 - - -;
#X floatatom 1026 152 10 0 0 0 - - -;
#X floatatom 1026 172 10 0 0 0 - - -;
#X floatatom 1026 195 10 0 0 0 - - -;
#X floatatom 1026 218 10 0 0 0 - - -;
#X floatatom 1026 238 10 0 0 0 - - -;
#X obj 860 106 COMPTEURHEXADECIMALBINAIRE;
#X obj 860 85 COMPTEURHEXADECIMALBINAIRE;
#X obj 860 129 COMPTEURHEXADECIMALBINAIRE;
#X obj 859 238 COMPTEURHEXADECIMALBINAIRE;
#X obj 859 172 COMPTEURHEXADECIMALBINAIRE;
#X obj 859 151 COMPTEURHEXADECIMALBINAIRE;
#X obj 859 218 COMPTEURHEXADECIMALBINAIRE;
#X obj 859 195 COMPTEURHEXADECIMALBINAIRE;
#X floatatom 1029 294 10 0 0 0 - - -;
#X floatatom 1025 314 10 0 0 0 - - -;
#X floatatom 1025 337 10 0 0 0 - - -;
#X floatatom 1025 360 10 0 0 0 - - -;
#X floatatom 1025 380 10 0 0 0 - - -;
#X floatatom 1025 403 10 0 0 0 - - -;
#X floatatom 1025 426 10 0 0 0 - - -;
#X floatatom 1025 446 10 0 0 0 - - -;
#X obj 859 314 COMPTEURHEXADECIMALBINAIRE;
#X obj 859 293 COMPTEURHEXADECIMALBINAIRE;
#X obj 859 337 COMPTEURHEXADECIMALBINAIRE;
#X obj 858 446 COMPTEURHEXADECIMALBINAIRE;
#X obj 858 380 COMPTEURHEXADECIMALBINAIRE;
#X obj 858 359 COMPTEURHEXADECIMALBINAIRE;
#X obj 858 426 COMPTEURHEXADECIMALBINAIRE;
#X obj 858 403 COMPTEURHEXADECIMALBINAIRE;
#X obj 854 514 outlet;
#X obj 953 518 outlet;
#X obj 154 54 inlet;
#X obj 231 51 inlet;
#X connect 8 0 10 0;
#X connect 8 1 10 1;
#X connect 8 2 1 0;
#X connect 9 0 8 0;
#X connect 9 1 8 1;
#X connect 9 2 0 0;
#X connect 10 0 13 0;
#X connect 10 1 13 1;
#X connect 10 2 2 0;
#X connect 11 0 25 0;
#X connect 11 1 25 1;
#X connect 11 2 7 0;
#X connect 12 0 15 0;
#X connect 12 1 15 1;
#X connect 12 2 4 0;
#X connect 13 0 12 0;
#X connect 13 1 12 1;
#X connect 13 2 3 0;
#X connect 14 0 11 0;
#X connect 14 1 11 1;
#X connect 14 2 6 0;
#X connect 15 0 14 0;
#X connect 15 1 14 1;
#X connect 15 2 5 0;
#X connect 24 0 26 0;
#X connect 24 1 26 1;
#X connect 24 2 17 0;
#X connect 25 0 24 0;
#X connect 25 1 24 1;
#X connect 25 2 16 0;
#X connect 26 0 29 0;
#X connect 26 1 29 1;
#X connect 26 2 18 0;
#X connect 27 0 41 0;
#X connect 27 1 41 1;
#X connect 27 2 23 0;
#X connect 28 0 31 0;
#X connect 28 1 31 1;
#X connect 28 2 20 0;
#X connect 29 0 28 0;
#X connect 29 1 28 1;
#X connect 29 2 19 0;
#X connect 30 0 27 0;
#X connect 30 1 27 1;
#X connect 30 2 22 0;
#X connect 31 0 30 0;
#X connect 31 1 30 1;
#X connect 31 2 21 0;
#X connect 40 0 42 0;
#X connect 40 1 42 1;
#X connect 40 2 33 0;
#X connect 41 0 40 0;
#X connect 41 1 40 1;
#X connect 41 2 32 0;
#X connect 42 0 45 0;
#X connect 42 1 45 1;
#X connect 42 2 34 0;
#X connect 43 0 57 0;
#X connect 43 1 57 1;
#X connect 43 2 39 0;
#X connect 44 0 47 0;
#X connect 44 1 47 1;
#X connect 44 2 36 0;
#X connect 45 0 44 0;
#X connect 45 1 44 1;
#X connect 45 2 35 0;
#X connect 46 0 43 0;
#X connect 46 1 43 1;
#X connect 46 2 38 0;
#X connect 47 0 46 0;
#X connect 47 1 46 1;
#X connect 47 2 37 0;
#X connect 56 0 58 0;
#X connect 56 1 58 1;
#X connect 56 2 49 0;
#X connect 57 0 56 0;
#X connect 57 1 56 1;
#X connect 57 2 48 0;
#X connect 58 0 61 0;
#X connect 58 1 61 1;
#X connect 58 2 50 0;
#X connect 59 0 73 0;
#X connect 59 1 73 1;
#X connect 59 2 55 0;
#X connect 60 0 63 0;
#X connect 60 1 63 1;
#X connect 60 2 52 0;
#X connect 61 0 60 0;
#X connect 61 1 60 1;
#X connect 61 2 51 0;
#X connect 62 0 59 0;
#X connect 62 1 59 1;
#X connect 62 2 54 0;
#X connect 63 0 62 0;
#X connect 63 1 62 1;
#X connect 63 2 53 0;
#X connect 72 0 74 0;
#X connect 72 1 74 1;
#X connect 72 2 65 0;
#X connect 73 0 72 0;
#X connect 73 1 72 1;
#X connect 73 2 64 0;
#X connect 74 0 77 0;
#X connect 74 1 77 1;
#X connect 74 2 66 0;
#X connect 75 0 89 0;
#X connect 75 1 89 1;
#X connect 75 2 71 0;
#X connect 76 0 79 0;
#X connect 76 1 79 1;
#X connect 76 2 68 0;
#X connect 77 0 76 0;
#X connect 77 1 76 1;
#X connect 77 2 67 0;
#X connect 78 0 75 0;
#X connect 78 1 75 1;
#X connect 78 2 70 0;
#X connect 79 0 78 0;
#X connect 79 1 78 1;
#X connect 79 2 69 0;
#X connect 88 0 90 0;
#X connect 88 1 90 1;
#X connect 88 2 81 0;
#X connect 89 0 88 0;
#X connect 89 1 88 1;
#X connect 89 2 80 0;
#X connect 90 0 93 0;
#X connect 90 1 93 1;
#X connect 90 2 82 0;
#X connect 91 0 105 0;
#X connect 91 1 105 1;
#X connect 91 2 87 0;
#X connect 92 0 95 0;
#X connect 92 1 95 1;
#X connect 92 2 84 0;
#X connect 93 0 92 0;
#X connect 93 1 92 1;
#X connect 93 2 83 0;
#X connect 94 0 91 0;
#X connect 94 1 91 1;
#X connect 94 2 86 0;
#X connect 95 0 94 0;
#X connect 95 1 94 1;
#X connect 95 2 85 0;
#X connect 104 0 106 0;
#X connect 104 1 106 1;
#X connect 104 2 97 0;
#X connect 105 0 104 0;
#X connect 105 1 104 1;
#X connect 105 2 96 0;
#X connect 106 0 109 0;
#X connect 106 1 109 1;
#X connect 106 2 98 0;
#X connect 107 0 121 0;
#X connect 107 1 121 1;
#X connect 107 2 103 0;
#X connect 108 0 111 0;
#X connect 108 1 111 1;
#X connect 108 2 100 0;
#X connect 109 0 108 0;
#X connect 109 1 108 1;
#X connect 109 2 99 0;
#X connect 110 0 107 0;
#X connect 110 1 107 1;
#X connect 110 2 102 0;
#X connect 111 0 110 0;
#X connect 111 1 110 1;
#X connect 111 2 101 0;
#X connect 120 0 122 0;
#X connect 120 1 122 1;
#X connect 120 2 113 0;
#X connect 121 0 120 0;
#X connect 121 1 120 1;
#X connect 121 2 112 0;
#X connect 122 0 125 0;
#X connect 122 1 125 1;
#X connect 122 2 114 0;
#X connect 123 0 128 0;
#X connect 123 1 129 0;
#X connect 123 2 119 0;
#X connect 124 0 127 0;
#X connect 124 1 127 1;
#X connect 124 2 116 0;
#X connect 125 0 124 0;
#X connect 125 1 124 1;
#X connect 125 2 115 0;
#X connect 126 0 123 0;
#X connect 126 1 123 1;
#X connect 126 2 118 0;
#X connect 127 0 126 0;
#X connect 127 1 126 1;
#X connect 127 2 117 0;
#X connect 130 0 9 0;
#X connect 131 0 9 1;
#X restore 878 377 pd compteurs;
#X obj -58 142 pix_set 48 48;
#X obj -34 407 scaleXYZ;
#X floatatom 30 326 5 0 0 0 - - -;
#X floatatom 7 383 5 0 0 0 - - -;
#X connect 0 0 1 0;
#X connect 1 0 0 0;
#X connect 2 0 170 0;
#X connect 3 0 45 0;
#X connect 5 0 7 0;
#X connect 6 0 0 0;
#X connect 7 1 56 0;
#X connect 7 2 44 0;
#X connect 7 3 6 0;
#X connect 8 0 7 0;
#X connect 9 0 170 1;
#X connect 12 0 11 0;
#X connect 13 0 14 0;
#X connect 14 0 15 0;
#X connect 15 0 48 0;
#X connect 16 0 15 0;
#X connect 27 0 26 0;
#X connect 28 0 48 0;
#X connect 32 0 33 1;
#X connect 34 0 49 0;
#X connect 34 1 49 1;
#X connect 34 2 18 0;
#X connect 36 0 28 0;
#X connect 36 1 35 0;
#X connect 37 0 38 0;
#X connect 38 0 41 0;
#X connect 39 0 41 0;
#X connect 41 0 36 0;
#X connect 42 0 35 0;
#X connect 44 0 3 0;
#X connect 45 0 171 0;
#X connect 46 0 45 1;
#X connect 48 0 34 0;
#X connect 48 1 34 1;
#X connect 48 2 17 0;
#X connect 49 0 52 0;
#X connect 49 1 52 1;
#X connect 49 2 19 0;
#X connect 50 0 66 0;
#X connect 50 1 66 1;
#X connect 50 2 24 0;
#X connect 51 0 54 0;
#X connect 51 1 54 1;
#X connect 51 2 21 0;
#X connect 52 0 51 0;
#X connect 52 1 51 1;
#X connect 52 2 20 0;
#X connect 53 0 50 0;
#X connect 53 1 50 1;
#X connect 53 2 23 0;
#X connect 54 0 53 0;
#X connect 54 1 53 1;
#X connect 54 2 22 0;
#X connect 55 1 170 1;
#X connect 55 2 25 0;
#X connect 56 0 170 0;
#X connect 65 0 67 0;
#X connect 65 1 67 1;
#X connect 65 2 58 0;
#X connect 66 0 65 0;
#X connect 66 1 65 1;
#X connect 66 2 57 0;
#X connect 67 0 70 0;
#X connect 67 1 70 1;
#X connect 67 2 59 0;
#X connect 68 0 82 0;
#X connect 68 1 82 1;
#X connect 68 2 64 0;
#X connect 69 0 72 0;
#X connect 69 1 72 1;
#X connect 69 2 61 0;
#X connect 70 0 69 0;
#X connect 70 1 69 1;
#X connect 70 2 60 0;
#X connect 71 0 68 0;
#X connect 71 1 68 1;
#X connect 71 2 63 0;
#X connect 72 0 71 0;
#X connect 72 1 71 1;
#X connect 72 2 62 0;
#X connect 81 0 83 0;
#X connect 81 1 83 1;
#X connect 81 2 74 0;
#X connect 82 0 81 0;
#X connect 82 1 81 1;
#X connect 82 2 73 0;
#X connect 83 0 86 0;
#X connect 83 1 86 1;
#X connect 83 2 75 0;
#X connect 84 0 98 0;
#X connect 84 1 98 1;
#X connect 84 2 80 0;
#X connect 85 0 88 0;
#X connect 85 1 88 1;
#X connect 85 2 77 0;
#X connect 86 0 85 0;
#X connect 86 1 85 1;
#X connect 86 2 76 0;
#X connect 87 0 84 0;
#X connect 87 1 84 1;
#X connect 87 2 79 0;
#X connect 88 0 87 0;
#X connect 88 1 87 1;
#X connect 88 2 78 0;
#X connect 97 0 99 0;
#X connect 97 1 99 1;
#X connect 97 2 90 0;
#X connect 98 0 97 0;
#X connect 98 1 97 1;
#X connect 98 2 89 0;
#X connect 99 0 102 0;
#X connect 99 1 102 1;
#X connect 99 2 91 0;
#X connect 100 0 114 0;
#X connect 100 1 114 1;
#X connect 100 2 96 0;
#X connect 101 0 104 0;
#X connect 101 1 104 1;
#X connect 101 2 93 0;
#X connect 102 0 101 0;
#X connect 102 1 101 1;
#X connect 102 2 92 0;
#X connect 103 0 100 0;
#X connect 103 1 100 1;
#X connect 103 2 95 0;
#X connect 104 0 103 0;
#X connect 104 1 103 1;
#X connect 104 2 94 0;
#X connect 113 0 115 0;
#X connect 113 1 115 1;
#X connect 113 2 106 0;
#X connect 114 0 113 0;
#X connect 114 1 113 1;
#X connect 114 2 105 0;
#X connect 115 0 118 0;
#X connect 115 1 118 1;
#X connect 115 2 107 0;
#X connect 116 0 130 0;
#X connect 116 1 130 1;
#X connect 116 2 112 0;
#X connect 117 0 120 0;
#X connect 117 1 120 1;
#X connect 117 2 109 0;
#X connect 118 0 117 0;
#X connect 118 1 117 1;
#X connect 118 2 108 0;
#X connect 119 0 116 0;
#X connect 119 1 116 1;
#X connect 119 2 111 0;
#X connect 120 0 119 0;
#X connect 120 1 119 1;
#X connect 120 2 110 0;
#X connect 129 0 131 0;
#X connect 129 1 131 1;
#X connect 129 2 122 0;
#X connect 130 0 129 0;
#X connect 130 1 129 1;
#X connect 130 2 121 0;
#X connect 131 0 134 0;
#X connect 131 1 134 1;
#X connect 131 2 123 0;
#X connect 132 0 146 0;
#X connect 132 1 146 1;
#X connect 132 2 128 0;
#X connect 133 0 136 0;
#X connect 133 1 136 1;
#X connect 133 2 125 0;
#X connect 134 0 133 0;
#X connect 134 1 133 1;
#X connect 134 2 124 0;
#X connect 135 0 132 0;
#X connect 135 1 132 1;
#X connect 135 2 127 0;
#X connect 136 0 135 0;
#X connect 136 1 135 1;
#X connect 136 2 126 0;
#X connect 145 0 147 0;
#X connect 145 1 147 1;
#X connect 145 2 138 0;
#X connect 146 0 145 0;
#X connect 146 1 145 1;
#X connect 146 2 137 0;
#X connect 147 0 150 0;
#X connect 147 1 150 1;
#X connect 147 2 139 0;
#X connect 148 0 162 0;
#X connect 148 1 162 1;
#X connect 148 2 144 0;
#X connect 149 0 152 0;
#X connect 149 1 152 1;
#X connect 149 2 141 0;
#X connect 150 0 149 0;
#X connect 150 1 149 1;
#X connect 150 2 140 0;
#X connect 151 0 148 0;
#X connect 151 1 148 1;
#X connect 151 2 143 0;
#X connect 152 0 151 0;
#X connect 152 1 151 1;
#X connect 152 2 142 0;
#X connect 161 0 163 0;
#X connect 161 1 163 1;
#X connect 161 2 154 0;
#X connect 162 0 161 0;
#X connect 162 1 161 1;
#X connect 162 2 153 0;
#X connect 163 0 166 0;
#X connect 163 1 166 1;
#X connect 163 2 155 0;
#X connect 164 0 169 0;
#X connect 164 1 169 1;
#X connect 164 2 160 0;
#X connect 165 0 168 0;
#X connect 165 1 168 1;
#X connect 165 2 157 0;
#X connect 166 0 165 0;
#X connect 166 1 165 1;
#X connect 166 2 156 0;
#X connect 167 0 164 0;
#X connect 167 1 164 1;
#X connect 167 2 159 0;
#X connect 168 0 167 0;
#X connect 168 1 167 1;
#X connect 168 2 158 0;
#X connect 169 0 55 0;
#X connect 169 1 55 1;
#X connect 170 0 3 0;
#X connect 171 0 33 0;
#X connect 172 0 45 3;
#X connect 173 0 171 2;
