#N canvas 817 402 674 490 10;
#X obj 240 281 octet01 1;
#X obj 547 328 list append;
#X obj 492 278 octet01 2;
#X floatatom 584 290 0 0 0 0 - - -;
#X obj 248 218 + 1;
#X msg 240 104 bang;
#X obj 240 130 trigger bang bang;
#X msg 329 238 0;
#X obj 340 206 select 65535;
#X obj 152 400 outlet;
#X obj 60 399 outlet fini;
#X obj 60 374 bang;
#X obj 137 12 inlet list;
#X obj 355 11 receive RESETCOUNTER;
#X obj 45 12 inlet step;
#X msg 45 121 bang;
#X obj 240 12 inlet reset;
#X obj -9 111 bng 15 250 50 0 empty empty empty 17 7 0 10 -262144 -1
-1;
#X msg -9 129 65530;
#X obj 240 156 metro 5;
#X obj 355 396 outlet debug;
#X msg 373 103 stop;
#X obj 355 62 t b b b;
#X msg 355 129 0;
#X obj 252 377 print;
#X obj 10 197 bng 15 250 50 0 empty empty empty 17 7 0 10 -262144 -1
-1;
#X text 3 218 step;
#X obj 149 338 list prepend;
#X obj 449 135 receive RANDOMIZE;
#X obj 441 172 random 65535;
#X obj 240 182 float 1;
#X connect 0 1 27 1;
#X connect 2 1 1 0;
#X connect 4 0 20 0;
#X connect 4 0 30 1;
#X connect 5 0 6 0;
#X connect 6 0 19 0;
#X connect 6 1 7 0;
#X connect 7 0 30 1;
#X connect 8 0 7 0;
#X connect 8 0 11 0;
#X connect 11 0 10 0;
#X connect 12 0 27 0;
#X connect 13 0 22 0;
#X connect 14 0 15 0;
#X connect 15 0 27 0;
#X connect 15 0 30 0;
#X connect 16 0 5 0;
#X connect 17 0 18 0;
#X connect 18 0 30 0;
#X connect 19 0 30 0;
#X connect 21 0 19 0;
#X connect 22 0 23 0;
#X connect 22 1 21 0;
#X connect 23 0 20 0;
#X connect 23 0 0 0;
#X connect 23 0 30 1;
#X connect 25 0 30 0;
#X connect 27 0 9 0;
#X connect 28 0 29 0;
#X connect 29 0 30 0;
#X connect 30 0 4 0;
#X connect 30 0 0 0;
#X connect 30 0 8 0;
