#N canvas 1026 368 665 792 10;
#X floatatom 332 793 5 0 0 0 - - -;
#X obj 277 679 list;
#X obj 91 163 bit01;
#X obj 91 184 bit01;
#X obj 91 206 bit01;
#X obj 91 228 bit01;
#X obj 91 264 bit01;
#X obj 91 286 bit01;
#X obj 91 308 bit01;
#X obj 92 330 bit01;
#X obj 91 118 inlet;
#X obj 92 380 bit01;
#X obj 92 401 bit01;
#X obj 92 423 bit01;
#X obj 92 445 bit01;
#X obj 92 481 bit01;
#X obj 92 503 bit01;
#X obj 92 525 bit01;
#X obj 93 547 bit01;
#X obj 231 614 pack \$1 \$2 \$3 \$4 \$5 \$6 \$7 \$8 \$9 \$10 \$11 \$12
\$13 \$14 \$15 \$16;
#X obj 93 670 outlet;
#X obj 187 669 outlet hex;
#X floatatom 199 120 5 0 0 0 - - -;
#X obj 277 706 print \$1;
#X connect 1 0 23 0;
#X connect 2 0 3 0;
#X connect 2 1 19 15;
#X connect 3 0 4 0;
#X connect 3 1 19 14;
#X connect 4 0 5 0;
#X connect 4 1 19 13;
#X connect 5 0 6 0;
#X connect 5 1 19 12;
#X connect 6 0 7 0;
#X connect 6 1 19 11;
#X connect 7 0 8 0;
#X connect 7 1 19 10;
#X connect 8 0 9 0;
#X connect 8 1 19 9;
#X connect 9 0 11 0;
#X connect 9 1 19 8;
#X connect 10 0 2 0;
#X connect 11 0 12 0;
#X connect 11 1 19 7;
#X connect 12 0 13 0;
#X connect 12 1 19 6;
#X connect 13 0 14 0;
#X connect 13 1 19 5;
#X connect 14 0 15 0;
#X connect 14 1 19 4;
#X connect 15 0 16 0;
#X connect 15 1 19 3;
#X connect 16 0 17 0;
#X connect 16 1 19 2;
#X connect 17 0 18 0;
#X connect 17 1 19 1;
#X connect 18 0 20 0;
#X connect 18 1 19 0;
#X connect 19 0 21 0;
#X connect 22 0 2 0;
